<svg aria-hidden="true" style="position: absolute; width: 0; height: 0; overflow: hidden;" version="1.1" xmlns="http://www.w3.org/2000/svg" xmlns:xlink="http://www.w3.org/1999/xlink">
<defs>
<symbol id="icon-circle" viewBox="0 0 20 20">
<title>circle</title>
<path d="M10 0.4c-5.302 0-9.6 4.298-9.6 9.6s4.298 9.6 9.6 9.6c5.301 0 9.6-4.298 9.6-9.601 0-5.301-4.299-9.599-9.6-9.599zM10 17.599c-4.197 0-7.6-3.402-7.6-7.6s3.402-7.599 7.6-7.599c4.197 0 7.601 3.402 7.601 7.6s-3.404 7.599-7.601 7.599z"></path>
</symbol>

<symbol id="icon-triangle" viewBox="0 0 24 24">
<title>triangle</title>
<path d="M23 17.5l-8.4-14.2c-0.4-0.7-1.1-1.2-1.9-1.4s-1.6-0.1-2.3 0.3c-0.4 0.2-0.8 0.6-1 1 0 0 0 0 0 0l-8.4 14.3c-0.8 1.4-0.3 3.3 1.1 4.1 0.4 0.3 0.9 0.4 1.4 0.4h17c0.8 0 1.6-0.3 2.1-0.9 0.6-0.6 0.9-1.3 0.9-2.1-0.1-0.5-0.2-1.1-0.5-1.5zM21.2 19.7c-0.2 0.2-0.5 0.3-0.7 0.3h-17c-0.2 0-0.3 0-0.5-0.1-0.5-0.3-0.6-0.9-0.4-1.4l8.5-14.1c0.1-0.1 0.2-0.3 0.3-0.3 0.5-0.3 1.1-0.1 1.4 0.3l8.5 14.1c0.1 0.1 0.1 0.3 0.1 0.5 0.1 0.3-0.1 0.5-0.2 0.7z"></path>
</symbol>

<symbol id="icon-square" viewBox="0 0 24 24">
<title>square</title>
<path d="M19 2h-14c-1.7 0-3 1.3-3 3v14c0 1.7 1.3 3 3 3h14c1.7 0 3-1.3 3-3v-14c0-1.7-1.3-3-3-3zM20 19c0 0.6-0.4 1-1 1h-14c-0.6 0-1-0.4-1-1v-14c0-0.6 0.4-1 1-1h14c0.6 0 1 0.4 1 1v14z"></path>
</symbol>

<symbol id="icon-moon" viewBox="0 0 20 20">
<title>moon</title>
<path d="M13.719 1.8c0.686 0.385 1.332 0.867 1.916 1.449 3.42 3.422 3.42 8.966 0 12.386s-8.965 3.42-12.386 0c-0.583-0.584-1.065-1.231-1.449-1.916 3.335 1.867 7.633 1.387 10.469-1.449s3.318-7.134 1.45-10.47z"></path>
</symbol>

<symbol id="icon-lotusicon" viewBox="0 0 32 32">
<title>lotusicon</title>
<path fill="none" stroke-width="1.0323" stroke-miterlimit="4" stroke-linecap="butt" stroke-linejoin="miter" d="M31.484 16c0 8.552-6.932 15.484-15.484 15.484s-15.484-6.932-15.484-15.484c0-8.552 6.932-15.484 15.484-15.484s15.484 6.932 15.484 15.484z"></path>
<path stroke="none" d="M24.425 17.854c0 0-3.738 3.177-8.425 0.191 0 0 3.121 3.399 6.371 2.668 2.445-0.55 3.807-2.62 5.625-2.68 0 0-5.029-3.751-9.182-1.060 0 0 3.397-0.884 5.611 0.882z"></path>
<path stroke="none" d="M21.158 16.827c0.422-0.213 0.828-0.48 1.192-0.816-0.955-0.059-1.957 0.103-2.931 0.64-0.118 0.076-0.239 0.15-0.365 0.22-0.078 0.051-0.155 0.104-0.232 0.16 0 0 1.047-0.301 2.336-0.205z"></path>
<path stroke="none" d="M21.816 11.695c0 0-0.348 4.598-5.816 5.675 0 0 4.659 0.232 6.428-2.4 1.331-1.98 0.798-4.269 2.039-5.506 0 0-6.262 0.787-7.254 5.332 0 0 1.762-2.831 4.602-3.101z"></path>
<path stroke="none" d="M18.509 13.555c0.156-0.426 0.27-0.876 0.314-1.339-0.678 0.63-1.257 1.43-1.59 2.443-0.033 0.129-0.071 0.26-0.114 0.392-0.021 0.086-0.042 0.172-0.060 0.261 0 0 0.524-0.917 1.45-1.757z"></path>
<path stroke="none" d="M16.137 9.849c0 0 3.258 3.644 0.196 8.214 0 0 3.486-3.043 2.736-6.212-0.564-2.384-2.687-3.712-2.749-5.484 0 0-3.848 4.903-1.088 8.952 0 0-0.907-3.312 0.905-5.471z"></path>
<path stroke="none" d="M15.084 12.575c-0.218-0.37-0.492-0.726-0.837-1.046-0.060 0.838 0.106 1.718 0.657 2.572 0.078 0.103 0.154 0.21 0.226 0.32 0.053 0.068 0.106 0.136 0.164 0.204 0 0-0.309-0.918-0.21-2.050z"></path>
<path stroke="none" d="M9.92 11.942c0 0 4.921 0.325 6.074 5.434 0 0 0.248-4.354-2.569-6.006-2.119-1.243-4.569-0.746-5.893-1.905 0 0 0.842 5.851 5.707 6.778 0 0-3.030-1.646-3.319-4.3z"></path>
<path stroke="none" d="M11.375 15.335c-0.437-0.183-0.898-0.315-1.373-0.367 0.646 0.793 1.466 1.47 2.506 1.86 0.133 0.039 0.267 0.083 0.402 0.133 0.088 0.026 0.177 0.050 0.268 0.071 0 0-0.941-0.613-1.802-1.697z"></path>
<path stroke="none" d="M7.575 17.93c0 0 3.738-3.177 8.425-0.191 0 0-3.121-3.399-6.371-2.668-2.445 0.55-3.807 2.62-5.625 2.68 0 0 5.029 3.751 9.182 1.061 0 0-3.397 0.885-5.611-0.882z"></path>
</symbol>

</svg>
 